<svg xmlns="http://www.w3.org/2000/svg" width="15.447" height="9.262" viewBox="0 0 15.447 9.262">
  <g id="Group_1281" data-name="Group 1281" transform="translate(-202.846 -791.03)">
    <g id="Group_1277" data-name="Group 1277" transform="translate(203.096 791.28)">
      <path id="Path_11003" data-name="Path 11003" d="M1460.077,660.154a2.577,2.577,0,1,0-2.577-2.577A2.578,2.578,0,0,0,1460.077,660.154Z" transform="translate(-1457.5 -651.392)" fill="none" stroke="#000" stroke-linecap="round" stroke-linejoin="round" stroke-width="0.5"/>
      <path id="Path_11004" data-name="Path 11004" d="M1479.077,660.154a2.577,2.577,0,1,0-2.577-2.577A2.578,2.578,0,0,0,1479.077,660.154Z" transform="translate(-1466.707 -651.392)" fill="none" stroke="#000" stroke-linecap="round" stroke-linejoin="round" stroke-width="0.5"/>
      <path id="Path_11005" data-name="Path 11005" d="M1462.5,648h1.752l3.4,6.185" transform="translate(-1459.923 -648)" fill="none" stroke="#000" stroke-linecap="round" stroke-linejoin="round" stroke-width="0.5"/>
      <path id="Path_11006" data-name="Path 11006" d="M1462.5,656.123l2.886-4.123h4.639" transform="translate(-1459.923 -649.938)" fill="none" stroke="#000" stroke-linecap="round" stroke-linejoin="round" stroke-width="0.5"/>
      <path id="Path_11007" data-name="Path 11007" d="M1477.013,648H1474.9l3.4,6.185" transform="translate(-1465.932 -648)" fill="none" stroke="#000" stroke-linecap="round" stroke-linejoin="round" stroke-width="0.5"/>
    </g>
  </g>
</svg>
