<svg xmlns="http://www.w3.org/2000/svg" width="8.333" height="8.333" viewBox="0 0 8.333 8.333">
  <g id="Iconly_Light-outline_Time_Circle" data-name="Iconly/Light-outline/Time Circle" transform="translate(-0.833 -0.834)">
    <g id="Time_Circle" data-name="Time Circle" transform="translate(0.833 0.834)">
      <path id="Time_Circle-2" data-name="Time Circle" d="M0,4.167A4.167,4.167,0,1,1,4.167,8.333,4.171,4.171,0,0,1,0,4.167Zm.625,0A3.542,3.542,0,1,0,4.167.625,3.546,3.546,0,0,0,.625,4.167ZM5.474,5.681l-.038-.019L3.866,4.724A.313.313,0,0,1,3.717,4.5l0-.046V2.436a.313.313,0,0,1,.622-.042l0,.042V4.278l1.419.847a.312.312,0,0,1,.127.39l-.019.038a.312.312,0,0,1-.391.128Z" transform="translate(0 0)" fill="#116e0e"/>
    </g>
  </g>
</svg>
