<svg xmlns="http://www.w3.org/2000/svg" width="10.884" height="10.433" viewBox="0 0 10.884 10.433">
  <g id="Group_1283" data-name="Group 1283" transform="translate(-139.315 -787.495)">
    <g id="Group_1279" data-name="Group 1279" transform="translate(139.565 787.745)">
      <path id="Path_9614" data-name="Path 9614" d="M1856,1931.5v6.095" transform="translate(-1850.808 -1927.662)" fill="none" stroke="#6a0606" stroke-linecap="round" stroke-linejoin="round" stroke-width="0.5"/>
      <path id="Path_9615" data-name="Path 9615" d="M1856,1923v1.58" transform="translate(-1850.808 -1923)" fill="none" stroke="#6a0606" stroke-linecap="round" stroke-linejoin="round" stroke-width="0.5"/>
      <path id="Path_9616" data-name="Path 9616" d="M1854.629,1928.757a1.129,1.129,0,1,0-1.129-1.129A1.129,1.129,0,0,0,1854.629,1928.757Z" transform="translate(-1849.437 -1924.92)" fill="none" stroke="#6a0606" stroke-linecap="round" stroke-linejoin="round" stroke-width="0.5"/>
      <path id="Path_9617" data-name="Path 9617" d="M1865,1941.5v1.58" transform="translate(-1855.745 -1933.147)" fill="none" stroke="#6a0606" stroke-linecap="round" stroke-linejoin="round" stroke-width="0.5"/>
      <path id="Path_9618" data-name="Path 9618" d="M1865,1923v6.095" transform="translate(-1855.745 -1923)" fill="none" stroke="#6a0606" stroke-linecap="round" stroke-linejoin="round" stroke-width="0.5"/>
      <path id="Path_9619" data-name="Path 9619" d="M1863.629,1938.757a1.129,1.129,0,1,0-1.129-1.129A1.129,1.129,0,0,0,1863.629,1938.757Z" transform="translate(-1854.373 -1930.405)" fill="none" stroke="#6a0606" stroke-linecap="round" stroke-linejoin="round" stroke-width="0.5"/>
      <path id="Path_9620" data-name="Path 9620" d="M1847,1937.5v3.386" transform="translate(-1845.871 -1930.953)" fill="none" stroke="#6a0606" stroke-linecap="round" stroke-linejoin="round" stroke-width="0.5"/>
      <path id="Path_9621" data-name="Path 9621" d="M1847,1923v4.289" transform="translate(-1845.871 -1923)" fill="none" stroke="#6a0606" stroke-linecap="round" stroke-linejoin="round" stroke-width="0.5"/>
      <path id="Path_9622" data-name="Path 9622" d="M1845.629,1934.757a1.129,1.129,0,1,0-1.129-1.129A1.129,1.129,0,0,0,1845.629,1934.757Z" transform="translate(-1844.5 -1928.211)" fill="none" stroke="#6a0606" stroke-linecap="round" stroke-linejoin="round" stroke-width="0.5"/>
    </g>
  </g>
</svg>
