<svg xmlns="http://www.w3.org/2000/svg" width="14" height="14" viewBox="0 0 14 14">
  <g id="percentage" transform="translate(-4.919 0)">
    <g id="Group_1305" data-name="Group 1305" transform="translate(4.919 0)">
      <ellipse id="Ellipse_14" data-name="Ellipse 14" cx="0.597" cy="0.585" rx="0.597" ry="0.585" transform="translate(4.504 5.226)" fill="#f05c5c"/>
      <ellipse id="Ellipse_15" data-name="Ellipse 15" cx="0.597" cy="0.585" rx="0.597" ry="0.585" transform="translate(8.298 7.601)" fill="#f05c5c"/>
      <path id="Path_11008" data-name="Path 11008" d="M18.74,7.773l-.217-.29a.9.9,0,0,1-.009-1.064l.211-.293A.9.9,0,0,0,18.4,4.8l-.322-.169a.9.9,0,0,1-.477-.955l.061-.353a.916.916,0,0,0-.878-1.061l-.366-.014a.93.93,0,0,1-.855-.657l-.1-.344A.933.933,0,0,0,14.2.658L13.865.8a.941.941,0,0,1-1.06-.229L12.562.3a.941.941,0,0,0-1.394.011l-.24.27A.944.944,0,0,1,9.872.828L9.532.69a.936.936,0,0,0-1.253.6l-.1.347a.92.92,0,0,1-.843.668l-.366.02A.915.915,0,0,0,6.112,3.4l.067.353a.9.9,0,0,1-.463.961L5.4,4.893a.9.9,0,0,0-.3,1.334l.217.29a.9.9,0,0,1,.009,1.064l-.211.293A.9.9,0,0,0,5.436,9.2l.322.169a.9.9,0,0,1,.477.955l-.061.353a.916.916,0,0,0,.878,1.061l.366.014a.93.93,0,0,1,.855.657l.1.344a.933.933,0,0,0,1.262.582l.337-.141a.941.941,0,0,1,1.06.229l.243.267a.941.941,0,0,0,1.394-.011l.24-.27a.944.944,0,0,1,1.057-.244l.34.138a.936.936,0,0,0,1.253-.6l.1-.347a.92.92,0,0,1,.843-.668l.366-.02a.915.915,0,0,0,.861-1.076l-.067-.353a.9.9,0,0,1,.463-.961l.319-.175A.9.9,0,0,0,18.74,7.773ZM8.577,5.811a1.441,1.441,0,1,1,1.44,1.411A1.425,1.425,0,0,1,8.577,5.811ZM10.3,9.451A.357.357,0,0,1,9.8,9.5h0a.34.34,0,0,1-.047-.485l3.78-4.461a.357.357,0,0,1,.495-.046.34.34,0,0,1,.047.485Zm3.519.146a1.412,1.412,0,1,1,1.44-1.411A1.425,1.425,0,0,1,13.815,9.6Z" transform="translate(-4.919 0)" fill="#f05c5c"/>
    </g>
  </g>
</svg>
