<svg xmlns="http://www.w3.org/2000/svg" width="8.334" height="7.917" viewBox="0 0 8.334 7.917">
  <g id="Iconly_Bold_Star" data-name="Iconly/Bold/Star" transform="translate(-0.833 -1.042)">
    <g id="Star" transform="translate(0.833 1.042)">
      <path id="Star-2" data-name="Star" d="M6.633,4.925a.459.459,0,0,0-.133.4l.37,2.05a.45.45,0,0,1-.187.45.459.459,0,0,1-.488.033L4.35,6.9a.471.471,0,0,0-.208-.055H4.029a.338.338,0,0,0-.112.037L2.07,7.85a.487.487,0,0,1-.3.046.463.463,0,0,1-.371-.53l.371-2.05a.466.466,0,0,0-.133-.408L.137,3.45a.45.45,0,0,1-.112-.471A.468.468,0,0,1,.4,2.667l2.071-.3a.463.463,0,0,0,.367-.254L3.745.242A.434.434,0,0,1,3.829.129L3.866.1A.28.28,0,0,1,3.933.046L3.979.029,4.05,0h.175a.466.466,0,0,1,.367.25l.925,1.863a.463.463,0,0,0,.346.254l2.071.3a.472.472,0,0,1,.379.313.453.453,0,0,1-.121.471Z" transform="translate(0)" fill="#f5a70d"/>
    </g>
  </g>
</svg>
